<?xml version="1.0" standalone="no"?>
<!DOCTYPE svg PUBLIC "-//W3C//DTD SVG 20010904//EN"
 "http://www.w3.org/TR/2001/REC-SVG-20010904/DTD/svg10.dtd">
<svg version="1.0" xmlns="http://www.w3.org/2000/svg"
 width="341.000000pt" height="341.000000pt" viewBox="0 0 341.000000 341.000000"
 preserveAspectRatio="xMidYMid meet">
<metadata>
Created by potrace 1.11, written by Peter Selinger 2001-2013
</metadata>
<g transform="translate(0.000000,341.000000) scale(0.100000,-0.100000)"
fill="#000000" stroke="none">
<path d="M3208 2188 c-103 -616 -191 -1124 -197 -1127 -5 -3 -622 -217 -1371
-476 -818 -283 -1351 -471 -1335 -473 15 -2 582 189 1361 458 735 254 1338
459 1341 456 5 -5 -127 -821 -144 -895 -4 -17 -2 -22 8 -19 9 3 36 139 91 467
42 255 78 464 80 466 2 1 85 30 186 65 100 35 182 67 182 71 0 5 -4 9 -9 9 -7
0 -292 -96 -344 -116 -11 -4 29 255 169 1088 101 601 184 1105 184 1121 0 15
-3 27 -8 27 -4 0 -91 -505 -194 -1122z"/>
<path d="M2517 2820 c-114 -20 -212 -41 -217 -46 -8 -8 -49 -471 -50 -556 0
-13 -8 -18 -26 -18 -29 0 -407 -86 -441 -100 -22 -9 -23 -14 -23 -139 0 -119
-1 -129 -18 -124 -14 3 -246 -50 -466 -108 l-39 -11 6 -138 c5 -115 4 -138 -8
-134 -11 5 -148 -31 -473 -123 -29 -8 -56 -21 -59 -29 -3 -9 2 -70 11 -137 19
-147 19 -148 3 -141 -15 5 -546 -151 -561 -166 -17 -17 21 -154 94 -340 39
-98 76 -183 83 -188 9 -8 44 0 122 28 61 21 189 66 285 100 96 33 180 66 185
73 6 7 17 11 26 9 22 -4 512 166 525 184 6 8 18 12 26 9 7 -3 117 31 243 76
127 44 246 84 265 88 67 14 425 143 436 157 6 7 14 11 17 8 7 -7 388 125 403
140 7 6 53 254 104 551 50 297 107 632 127 744 19 112 31 207 26 211 -12 13
-372 160 -386 159 -7 -1 -106 -18 -220 -39z"/>
</g>
</svg>
